HIERARCHY
ROOT hip
{
  OFFSET 0 0 0
  CHANNELS 6 Xposition Yposition Zposition Zrotation Yrotation Xrotation
  JOINT abdomen
  {
    OFFSET 0 20.6881 -0.73152
    CHANNELS 3 Zrotation Xrotation Yrotation
    JOINT chest
    {
      OFFSET 0 11.7043 -0.48768
      CHANNELS 3 Zrotation Xrotation Yrotation
      JOINT neck
      {
        OFFSET 0 22.1894 -2.19456
        CHANNELS 3 Zrotation Xrotation Yrotation
        JOINT head
        {
          OFFSET -0.24384 7.07133 1.2192
          CHANNELS 3 Zrotation Xrotation Yrotation
          JOINT leftEye
          {
            OFFSET 4.14528 8.04674 8.04672
            CHANNELS 3 Zrotation Xrotation Yrotation
            End Site
            {
              OFFSET 1 0 0
            }
          }
          JOINT rightEye
          {
            OFFSET -3.6576 8.04674 8.04672
            CHANNELS 3 Zrotation Xrotation Yrotation
            End Site
            {
              OFFSET 1 0 0
            }
          }
        }
      }
      JOINT rCollar
      {
        OFFSET -2.68224 19.2634 -4.8768
        CHANNELS 3 Zrotation Xrotation Yrotation
        JOINT rShldr
        {
          OFFSET -8.77824 -1.95073 1.46304
          CHANNELS 3 Zrotation Xrotation Yrotation
          JOINT rForeArm
          {
            OFFSET -28.1742 -1.7115 0.48768
            CHANNELS 3 Zrotation Xrotation Yrotation
            JOINT rHand
            {
              OFFSET -22.5879 0.773209 7.07136
              CHANNELS 3 Zrotation Xrotation Yrotation
              JOINT rThumb1
              {
                OFFSET -1.2192 -0.487915 3.41376
                CHANNELS 3 Zrotation Xrotation Yrotation
                JOINT rThumb2
                {
                  OFFSET -3.37035 -0.52449 3.41376
                  CHANNELS 3 Zrotation Xrotation Yrotation
                  End Site
                  {
                    OFFSET -1.78271 -1.18214 1.43049
                  }
                }
              }
              JOINT rIndex1
              {
                OFFSET -7.75947 0.938293 5.60832
                CHANNELS 3 Zrotation Xrotation Yrotation
                JOINT rIndex2
                {
                  OFFSET -2.54057 -0.884171 1.56538
                  CHANNELS 3 Zrotation Xrotation Yrotation
                  End Site
                  {
                    OFFSET -1.62519 -0.234802 1.16502
                  }
                }
              }
              JOINT rMid1
              {
                OFFSET -8.24714 1.18213 3.41376
                CHANNELS 3 Zrotation Xrotation Yrotation
                JOINT rMid2
                {
                  OFFSET -3.10165 -0.590103 1.0647
                  CHANNELS 3 Zrotation Xrotation Yrotation
                  End Site
                  {
                    OFFSET -2.48547 -0.328903 0.83742
                  }
                }
              }
              JOINT rRing1
              {
                OFFSET -8.82822 0.546677 1.51678
                CHANNELS 3 Zrotation Xrotation Yrotation
                JOINT rRing2
                {
                  OFFSET -2.60934 -0.819778 -0.0198488
                  CHANNELS 3 Zrotation Xrotation Yrotation
                  End Site
                  {
                    OFFSET -2.33842 -0.294052 0.168128
                  }
                }
              }
              JOINT rPinky1
              {
                OFFSET -8.27202 -0.0477905 -0.4584
                CHANNELS 3 Zrotation Xrotation Yrotation
                JOINT rPinky2
                {
                  OFFSET -1.82734 -0.647385 -0.700984
                  CHANNELS 3 Zrotation Xrotation Yrotation
                  End Site
                  {
                    OFFSET -1.69225 -0.51767 -0.607171
                  }
                }
              }
            }
          }
        }
      }
      JOINT lCollar
      {
        OFFSET 2.68224 19.2634 -4.8768
        CHANNELS 3 Zrotation Xrotation Yrotation
        JOINT lShldr
        {
          OFFSET 8.77824 -1.95073 1.46304
          CHANNELS 3 Zrotation Xrotation Yrotation
          JOINT lForeArm
          {
            OFFSET 28.1742 -1.7115 0.48768
            CHANNELS 3 Zrotation Xrotation Yrotation
            JOINT lHand
            {
              OFFSET 22.5879 0.773209 7.07136
              CHANNELS 3 Zrotation Xrotation Yrotation
              JOINT lThumb1
              {
                OFFSET 1.2192 -0.487915 3.41376
                CHANNELS 3 Zrotation Xrotation Yrotation
                JOINT lThumb2
                {
                  OFFSET 3.37035 -0.52449 3.41376
                  CHANNELS 3 Zrotation Xrotation Yrotation
                  End Site
                  {
                    OFFSET 1.78271 -1.18214 1.43049
                  }
                }
              }
              JOINT lIndex1
              {
                OFFSET 7.75947 0.938293 5.60832
                CHANNELS 3 Zrotation Xrotation Yrotation
                JOINT lIndex2
                {
                  OFFSET 2.54057 -0.884171 1.56538
                  CHANNELS 3 Zrotation Xrotation Yrotation
                  End Site
                  {
                    OFFSET 1.62519 -0.234802 1.16502
                  }
                }
              }
              JOINT lMid1
              {
                OFFSET 8.24714 1.18213 3.41376
                CHANNELS 3 Zrotation Xrotation Yrotation
                JOINT lMid2
                {
                  OFFSET 3.10165 -0.590103 1.0647
                  CHANNELS 3 Zrotation Xrotation Yrotation
                  End Site
                  {
                    OFFSET 2.48547 -0.328903 0.83742
                  }
                }
              }
              JOINT lRing1
              {
                OFFSET 8.82822 0.546677 1.51678
                CHANNELS 3 Zrotation Xrotation Yrotation
                JOINT lRing2
                {
                  OFFSET 2.60934 -0.819778 -0.0198488
                  CHANNELS 3 Zrotation Xrotation Yrotation
                  End Site
                  {
                    OFFSET 2.33842 -0.294052 0.168128
                  }
                }
              }
              JOINT lPinky1
              {
                OFFSET 8.27202 -0.0477905 -0.4584
                CHANNELS 3 Zrotation Xrotation Yrotation
                JOINT lPinky2
                {
                  OFFSET 1.82734 -0.647385 -0.700984
                  CHANNELS 3 Zrotation Xrotation Yrotation
                  End Site
                  {
                    OFFSET 1.69225 -0.51767 -0.607171
                  }
                }
              }
            }
          }
        }
      }
    }
  }
  JOINT rButtock
  {
    OFFSET -8.77824 4.35084 1.2192
    CHANNELS 3 Zrotation Xrotation Yrotation
    JOINT rThigh
    {
      OFFSET 0 -1.70687 -2.19456
      CHANNELS 3 Zrotation Xrotation Yrotation
      JOINT rShin
      {
        OFFSET 0 -36.8199 0.73152
        CHANNELS 3 Zrotation Xrotation Yrotation
        JOINT rFoot
        {
          OFFSET 0.73152 -45.1104 -5.12064
          CHANNELS 3 Zrotation Xrotation Yrotation
          End Site
          {
            OFFSET -1.1221 -3.69964 12.103
          }
        }
      }
    }
  }
  JOINT lButtock
  {
    OFFSET 8.77824 4.35084 1.2192
    CHANNELS 3 Zrotation Xrotation Yrotation
    JOINT lThigh
    {
      OFFSET 0 -1.70687 -2.19456
      CHANNELS 3 Zrotation Xrotation Yrotation
      JOINT lShin
      {
        OFFSET 0 -36.8199 0.73152
        CHANNELS 3 Zrotation Xrotation Yrotation
        JOINT lFoot
        {
          OFFSET -0.73152 -45.1104 -5.12064
          CHANNELS 3 Zrotation Xrotation Yrotation
          End Site
          {
            OFFSET 1.1221 -3.69964 12.103
          }
        }
      }
    }
  }
}
MOTION
Frames:	6
Frame Time:	0.03333
0.0 0.0 0.0 0.0 0.0 0.0 0.0 0.0 0.0 0.0 0.0 0.0 0.0 0.0 0.0 0.0 0.0 0.0 0.0 0.0 0.0 0.0 0.0 0.0 0.0 0.0 0.0 0.0 0.0 0.0 0.0 0.0 0.0 0.0 0.0 0.0 0.0 0.0 0.0 0.0 0.0 0.0 0.0 0.0 0.0 0.0 0.0 0.0 0.0 0.0 0.0 0.0 0.0 0.0 0.0 0.0 0.0 0.0 0.0 0.0 0.0 0.0 0.0 0.0 0.0 0.0 0.0 0.0 0.0 0.0 0.0 0.0 0.0 0.0 0.0 0.0 0.0 0.0 0.0 0.0 0.0 0.0 0.0 0.0 0.0 0.0 0.0 0.0 0.0 0.0 0.0 0.0 0.0 0.0 0.0 0.0 0.0 0.0 0.0 0.0 0.0 0.0 0.0 0.0 0.0 0.0 0.0 0.0 0.0 0.0 0.0 0.0 0.0 0.0 0.0 0.0 0.0 0.0 0.0 0.0 0.0 0.0 0.0 0.0 0.0 0.0 0.0 0.0 0.0 0.0 0.0 0.0
-0.2578 61.2318 0.1869 -0.290427 14.157496 7.180971 -5.073746 8.663741 -149.484518 5.84532 5.764254 158.174323 -9.558945 29.668271 -106.04917 31.668728 24.137932 145.923346 0.002607 0.0 0.000682 0.002607 0.0 0.000682 -85.537226 68.182399 88.688966 1.507574 12.992866 55.305996 -168.798573 -9.314854 -86.79065 -8.605985 52.773122 6.858969 -12.304735 11.515302 3.094758 -92.127826 11.396042 85.198851 88.792271 -75.498957 40.050125 -9.972398 35.604497 7.861221 -169.088433 -33.247445 145.375747 29.847141 -60.090381 7.07046 -75.672007 -72.11584 -92.829045 -150.980281 0.161269 176.406551 -123.035635 -31.102583 -120.853807 -161.115781 55.950636 -147.321983 156.094122 -7.551029 -162.675702 -87.497773 86.117743 134.104264 -80.576339 -46.48552 82.026523 58.036895 38.151666 -44.605998 164.493825 -2.166729 -89.561831 172.603311 -11.565142 -87.417654 -5.921463 -10.174527 2.9689 65.041943 48.651316 -51.070544 157.055018 3.99352 -141.29686 -18.298385 -42.028109 -0.330582 69.296798 72.946792 -87.016864 60.594689 -82.243593 77.587067 136.960783 -9.523566 134.261596 20.941235 -36.910953 22.89713 179.997438 75.748426 0.002644 133.691798 -7.663469 -9.116049 -81.37768 74.927944 1.580046 132.739068 9.47547 -74.196686 0.001233 0.001216 0.000308 23.02991 -51.593001 75.672259 104.451709 41.104431 -6.528612 160.406947 -28.58876 62.664827
-0.3825 61.075 0.2803 -0.281444 14.365231 7.173977 -4.154757 9.558805 -120.313069 9.106282 1.816292 128.957391 8.496274 18.308768 60.23715 -23.295903 -9.619615 -18.916307 0.002361 -0.0 -0.001456 0.002361 -0.0 -0.001456 -9.651917 34.83607 11.199714 40.724215 24.687933 27.341362 -118.370316 -30.138547 -40.405326 5.017205 10.950664 6.965005 173.30647 -23.518651 87.871233 29.593637 -72.784048 18.92505 -19.170881 24.114648 13.380333 151.617863 -54.290453 90.243617 -125.644694 49.840042 115.273942 -163.434286 -5.784824 143.182493 -0.021904 -1.725774 -0.541337 -155.280513 -1.214299 171.999833 -0.345689 -0.89021 -0.317361 -166.908992 72.284666 -148.283133 154.82234 -73.937939 179.841223 -90.131759 43.502301 90.83973 154.820123 -79.977115 -61.72079 125.038496 38.66294 -116.296911 -81.971876 -50.091606 -32.722585 32.4144 7.146052 7.261426 121.826824 24.678763 -102.844115 13.889041 31.650801 -2.870546 160.674273 -6.667815 -143.244598 -18.267183 -42.03299 -0.338452 0.006508 3.473731 -1.09258 134.7889 -83.248086 156.700463 87.573975 -50.207609 85.930233 -2.25258 -2.973904 1.992562 179.990244 75.749237 0.006675 133.512232 -9.995213 -180.0 83.479897 -84.091168 -168.279262 -11.477969 4.921491 79.579682 -0.000436 -0.001369 0.000561 24.168836 -51.041439 29.989837 168.8432 80.364262 -87.025949 -68.65639 21.235353 -44.30996
-0.4727 61.0822 0.34559999999999996 -0.474076 14.403962 7.21968 -5.984602 13.053655 1.112652 -1.160339 -12.354872 7.526116 5.80582 33.465829 160.565652 -15.53151 37.412425 -111.651328 0.001262 0.0 0.003333 0.001474 0.0 0.001085 3.17796 -25.672947 -5.044399 41.803963 -6.680297 -20.109589 -24.132452 -32.032689 79.546688 -2.456101 36.406006 5.40676 -169.148716 -6.830476 89.916673 91.062369 -65.705422 68.494422 -108.427829 34.160677 91.742592 170.571835 -47.196453 108.322997 -36.035642 51.723428 29.831727 -7.188854 26.202463 6.141626 -0.021525 -1.725188 -0.542258 8.589755 19.54022 2.739323 -75.780189 -51.667024 -74.249144 -10.088173 -26.599216 -12.846836 -4.239406 -44.742778 8.647424 -52.666621 -12.709272 28.458596 51.948594 -9.062811 179.633065 158.113119 -11.553672 -157.028988 121.364707 30.329938 -71.958226 -52.22486 -46.224001 -34.311441 150.885824 -16.291408 -120.978572 155.716554 -3.628066 -118.999979 82.840218 61.11024 -74.532531 -167.846251 -64.068144 -132.815075 -0.003924 0.605263 -0.191022 140.411355 60.458184 -154.514712 145.719635 13.816633 142.306423 -7.531887 14.516782 -1.808026 -179.984974 75.750257 -0.010281 134.488982 -8.687985 -81.559875 -95.972531 10.052627 -89.001504 78.406175 11.199402 -152.984 0.0 0.00116 -0.001385 24.504483 -53.1318 138.692592 106.349141 -17.938327 39.56601 -43.285491 17.20946 -92.375475
-0.525 60.983 0.42 -0.555068 14.574242 7.347945 -5.782167 13.012786 -0.0 -0.993677 -12.401147 8.550631 -10.305851 28.148393 -96.026546 33.369356 19.327792 136.975022 0.002486 0.0 0.000516 -0.003464 -0.0 0.002558 -159.221149 -48.028557 170.414727 -30.493561 -7.284074 -16.712643 -54.691738 81.673952 150.969055 -9.379942 54.232628 7.134163 -173.089896 -10.764818 89.917836 -154.986107 2.896307 81.40368 -151.353619 -17.158746 121.132026 -157.095282 -6.728618 119.279254 -167.375583 -28.008406 145.269265 2.304318 2.417339 0.685476 -71.925405 72.973335 89.77226 -66.710753 -82.373697 -83.753569 8.578504 27.211722 7.53726 15.728218 47.37591 8.84659 155.504251 -3.514397 -161.83888 -136.849664 -1.000289 178.221891 8.90595 49.18512 -114.993862 34.051552 -72.41848 35.051066 85.829414 38.630659 -47.955436 107.635535 -10.513924 -72.734317 -37.217043 -57.917398 0.641987 153.425244 -9.39327 -113.617294 10.974522 25.790114 -7.64007 163.490006 -5.722774 -143.428419 0.001555 -0.01826 0.007421 -11.120022 -50.663061 6.501861 138.443035 -6.229746 135.659044 25.357675 -40.326219 27.020719 179.995057 75.749772 0.003382 133.41772 -7.875536 -9.418967 -112.117459 77.847279 -32.883898 80.450842 -20.343512 -157.109429 -0.001949 -0.001389 -0.002923 24.343799 -52.078275 75.823078 103.78173 54.349448 179.81666 49.805104 -16.027144 106.030943
-0.5693 60.9422 0.4313 -0.513794 14.593677 7.358219 -5.841657 13.084018 1.088951 -1.252573 -12.363581 7.395935 2.59448 15.054527 24.032863 -6.141629 -21.064641 18.65942 0.002031 -0.0 -0.00325 0.001907 0.0 0.002016 -80.166257 68.371874 83.260786 -78.790776 33.560673 99.130381 15.570094 -66.790437 -116.508573 142.486448 -46.03063 132.969119 -6.580654 6.344951 1.366445 74.255724 -76.105134 6.10575 88.793041 -75.497831 40.050838 -162.321927 -25.354503 115.155778 44.048799 -75.294764 17.452297 -170.363155 -25.693804 144.12937 -0.022374 -1.806346 -0.569249 -155.270555 -1.183981 171.990687 -153.995111 44.447595 -148.806686 -94.589966 -50.277886 -93.134449 85.537264 68.182921 -88.68901 -87.338275 -26.093855 -91.943727 178.04558 -43.882561 -38.406733 119.135285 41.523171 -109.864859 164.699506 -2.371441 -89.585497 158.839504 -2.630839 -80.734094 2.756821 4.332771 -1.628147 -87.168849 -60.138544 -36.235424 0.572363 1.648141 -0.322113 154.072247 20.053236 -138.725072 145.121502 1.080417 179.467781 153.710168 -16.736704 176.839732 156.382241 53.733772 150.119243 -15.29386 41.770926 -6.262903 -179.891878 75.749115 -0.083334 133.167609 -10.309186 -180.0 110.039268 -84.233577 -158.954691 108.932072 66.869677 -44.034319 -179.988768 75.748369 -0.008657 -163.223598 20.734708 -5.773117 -113.934684 66.987573 21.552616 134.860613 -47.732972 -171.140434
